#!OML:ASF I:\Actors\actors\Patient Classification 2\Patient 1\Session 1\actor1.ASF
:FULLY-SPECIFIED
:DEGREES
744
root -0.799644 18.6092 6.1856 -0.0790338 -3.17502 -5.10892
lowerback 0.459406 0.130963 3.23757
upperback -2.94253 0.293184 1.68651
thorax -3.27772 0.0833477 -0.0880777
lowerneck -7.44756 -0.152302 -0.700548
upperneck 20.8991 -0.543944 2.0644
head 7.65491 -0.130151 0.747296
rclavicle 1.04176e-014 -1.90336e-014
rhumerus -54.1043 -10.9364 -79.4186
rradius 40.5337
rwrist 15.8261
rhand -1.70901 -43.285
rfingers 7.12502
rthumb 23.9525 -71.8109
lclavicle 1.04176e-014 -1.90336e-014
lhumerus -49.4765 6.44832 89.6171
lradius 45.738
lwrist 8.51069
lhand -14.2969 -21.3799
lfingers 7.12502
lthumb 11.8428 8.26526
rfemur 0 0 0
rtibia 0
rfoot 0 0
rtoes 0
lfemur -1.52142 -7.52661 -9.45398
ltibia 23.0805
lfoot -26.2389 15.8248
ltoes -55.4001
745
root -0.799435 18.6078 6.18561 -0.179849 -3.28952 -5.1327
lowerback 0.518319 0.100108 3.33152
upperback -2.86791 0.255122 1.71321
thorax -3.23477 0.0633508 -0.112133
lowerneck -7.49625 -0.0806125 -0.598942
upperneck 20.8762 -0.440604 1.96954
head 7.65432 -0.0815937 0.707962
rclavicle -9.28076e-015 -1.9456e-014
rhumerus -54.185 -10.6629 -79.7871
rradius 40.6964
rwrist 15.832
rhand -1.47618 -42.9816
rfingers 7.12502
rthumb 24.1757 -71.478
lclavicle -9.28076e-015 -1.9456e-014
lhumerus -49.4665 6.66222 89.4443
lradius 44.9048
lwrist 6.5995
lhand -14.0398 -20.9692
lfingers 7.12502
lthumb 12.0908 8.66152
rfemur 0 0 0
rtibia 0
rfoot 0 0
rtoes 0
lfemur -1.36569 -7.53008 -9.46321
ltibia 23.0821
lfoot -26.3103 15.9031
ltoes -55.449
746
root -0.79937 18.6067 6.18467 -0.255312 -3.40777 -5.14395
lowerback 0.562395 0.0659399 3.39688
upperback -2.80851 0.21196 1.74548
thorax -3.19945 0.0414845 -0.11422
lowerneck -7.55496 -0.00355185 -0.569276
upperneck 20.8824 -0.331382 1.93373
head 7.66533 -0.0302522 0.70084
rclavicle -7.67495e-015 3.35698e-014
rhumerus -54.2416 -10.3759 -80.1615
rradius 40.9048
rwrist 15.7299
rhand -1.08319 -42.8353
rfingers 7.12502
rthumb 24.5525 -71.281
lclavicle -7.67495e-015 3.35698e-014
lhumerus -49.5305 6.93019 89.1829
lradius 44.1128
lwrist 4.63051
lhand -13.5701 -21.4337
lfingers 7.12502
lthumb 12.5436 8.16976
rfemur 0 0 0
rtibia 0
rfoot 0 0
rtoes 0
lfemur -1.23635 -7.52952 -9.48144
ltibia 23.0752
lfoot -26.4024 15.9677
ltoes -55.3489
747
root -0.799542 18.6058 6.18202 -0.309193 -3.52327 -5.15727
lowerback 0.616749 0.039412 3.47104
upperback -2.77015 0.180026 1.76153
thorax -3.19143 0.024267 -0.13821
lowerneck -7.60306 0.0556531 -0.535694
upperneck 20.9136 -0.248952 1.90247
head 7.68317 0.00902323 0.692351
rclavicle 9.25048e-015 -2.2444e-014
rhumerus -54.2751 -10.1304 -80.5562
rradius 41.1369
rwrist 15.5443
rhand -0.785354 -42.7143
rfingers 7.12502
rthumb 24.8379 -71.121
lclavicle 9.25048e-015 -2.2444e-014
lhumerus -49.67 7.11226 88.8387
lradius 43.2325
lwrist 2.98224
lhand -12.9373 -23.1434
lfingers 7.12502
lthumb 13.1536 6.4217
rfemur 0 0 0
rtibia 0
rfoot 0 0
rtoes 0
lfemur -1.13332 -7.53271 -9.49044
ltibia 23.046
lfoot -26.4649 16.0202
ltoes -55.2337
748
root -0.799576 18.6038 6.17952 -0.405989 -3.64065 -5.1446
lowerback 0.702308 0.0188057 3.51056
upperback -2.71982 0.15645 1.77829
thorax -3.18842 0.0121876 -0.142404
lowerneck -7.6357 0.0956747 -0.441437
upperneck 20.9645 -0.180226 1.76172
head 7.70495 0.036365 0.636543
rclavicle 2.64593e-016 6.3052e-016
rhumerus -54.2943 -9.92996 -80.922
rradius 41.396
rwrist 15.272
rhand -0.529763 -42.8279
rfingers 7.12502
rthumb 25.0829 -71.2006
lclavicle 2.64593e-016 6.3052e-016
lhumerus -49.8366 7.13691 88.6844
lradius 42.8671
lwrist 1.62008
lhand -12.3264 -23.466
lfingers 7.12502
lthumb 13.7425 6.06021
rfemur 0 0 0
rtibia 0
rfoot 0 0
rtoes 0
lfemur -0.972047 -7.5648 -9.53957
ltibia 22.9904
lfoot -26.4967 16.1159
ltoes -55.2182
749
root -0.799126 18.602 6.17773 -0.495946 -3.79858 -5.06965
lowerback 0.765618 0.0158788 3.46654
upperback -2.67199 0.153526 1.79849
thorax -3.17478 0.0127029 -0.0971094
lowerneck -7.67295 0.134358 -0.392712
upperneck 21.0233 -0.109199 1.63582
head 7.73031 0.062656 0.593531
rclavicle 1.04952e-014 -5.37961e-015
rhumerus -54.263 -9.79916 -81.1932
rradius 41.6111
rwrist 15.0305
rhand -0.142574 -43.0483
rfingers 7.12502
rthumb 25.4538 -71.3686
lclavicle 1.04952e-014 -5.37961e-015
lhumerus -49.9919 7.18679 88.5528
lradius 42.6399
lwrist 0.349818
lhand -11.6454 -23.8135
lfingers 7.12502
lthumb 14.3987 5.66707
rfemur 0 0 0
rtibia 0
rfoot 0 0
rtoes 0
lfemur -0.800932 -7.66071 -9.68124
ltibia 22.9331
lfoot -26.6179 16.3033
ltoes -55.2244
750
root -0.799886 18.602 6.17467 -0.530749 -3.9977 -4.99327
lowerback 0.802079 0.0373084 3.41431
upperback -2.64611 0.181923 1.8061
thorax -3.16781 0.0285669 -0.0612015
lowerneck -7.68644 0.168922 -0.384095
upperneck 21.0168 -0.0539414 1.59339
head 7.73001 0.0856897 0.583
rclavicle 3.45699e-015 -3.75206e-015
rhumerus -54.1769 -9.7667 -81.413
rradius 41.7788
rwrist 14.9168
rhand -0.101938 -42.9161
rfingers 7.12502
rthumb 25.4927 -71.2309
lclavicle 3.45699e-015 -3.75206e-015
lhumerus -50.1143 7.13359 88.4455
lradius 42.4895
lwrist -0.78012
lhand -11.002 -24.1865
lfingers 7.12502
lthumb 15.0185 5.24881
rfemur 0 0 0
rtibia 0
rfoot 0 0
rtoes 0
lfemur -0.685363 -7.80695 -9.82977
ltibia 22.888
lfoot -26.8166 16.5528
ltoes -55.1499
751
root -0.801181 18.6021 6.17023 -0.554486 -4.19778 -4.99685
lowerback 0.860333 0.0677188 3.46971
upperback -2.63393 0.226316 1.80582
thorax -3.18694 0.0491162 -0.0940786
lowerneck -7.68364 0.193962 -0.355655
upperneck 21.0193 -0.0176151 1.56266
head 7.72996 0.102273 0.571307
rclavicle 1.4092e-014 -1.59028e-015
rhumerus -54.0899 -9.76057 -81.6577
rradius 42.014
rwrist 14.8591
rhand -0.370387 -42.5833
rfingers 7.12502
rthumb 25.2356 -70.9346
lclavicle 1.4092e-014 -1.59028e-015
lhumerus -50.2046 7.14692 88.2503
lradius 42.3636
lwrist -1.94902
lhand -10.2987 -24.6065
lfingers 7.12502
lthumb 15.696 4.7769
rfemur 0 0 0
rtibia 0
rfoot 0 0
rtoes 0
lfemur -0.582113 -7.86864 -9.8707
ltibia 22.849
lfoot -26.9515 16.7488
ltoes -55.0805
